<svg width="82.000000" height="29.000000" viewBox="0 0 82 29" fill="none" xmlns="http://www.w3.org/2000/svg" xmlns:xlink="http://www.w3.org/1999/xlink">
	<desc>
			Created with Pixso.
	</desc>
	<defs/>
	<rect id="Frame 369" width="81.025391" height="29.902344" transform="translate(0.000000 -0.951172)" fill="#FFFFFF" fill-opacity="0"/>
	<path id="Subtract" d="M2.24805 -0.951172L0 -0.951172L0 17.9453C0 24.3027 4.80469 28.5508 12.0605 28.5508C19.2871 28.5508 24.1211 24.3027 24.1211 17.9453L24.1211 -0.951172L22.0847 -0.951172C22.0857 0.276367 22.0957 1.60089 22.1145 3.0224C22.1265 3.91278 22.1475 5.18732 22.1777 6.84595C22.2163 8.96698 22.2388 10.4996 22.2449 11.4437C22.2551 12.9894 22.24 14.2888 22.1995 15.3419C22.1521 16.5831 22.0647 17.6431 21.9377 18.5221C21.7964 19.4997 21.5972 20.319 21.3401 20.9801C20.9561 21.9669 20.428 22.8188 19.7563 23.5363C19.1975 24.1329 18.5393 24.6364 17.7815 25.0467C16.3125 25.8422 14.49 26.2725 12.314 26.3378C10.2578 26.3994 8.50049 26.0624 7.04175 25.3268C6.44727 25.027 5.90942 24.6632 5.42847 24.2355C5.22559 24.0553 5.03296 23.8637 4.85059 23.6607C4.18726 22.9232 3.66357 22.0427 3.27979 21.0192C2.9834 20.2287 2.75049 19.2665 2.58105 18.1328C2.42847 17.1128 2.31958 15.8975 2.25439 14.4869C2.19897 13.2926 2.17017 11.8333 2.16821 10.1092C2.16699 9.05859 2.17896 7.36823 2.20435 5.03796C2.23218 2.4881 2.24658 0.491699 2.24805 -0.951172ZM21.0847 -0.951172L17.9688 -0.951172L17.9688 17.418C17.9688 20.7383 15.6348 23.1406 12.0605 23.1406C8.49609 23.1406 6.15234 20.7383 6.15234 17.418L6.15234 -0.951172L3.24805 -0.951172C3.24658 0.495178 3.23218 2.49518 3.20435 5.04889C3.17896 7.37506 3.16699 9.06146 3.16821 10.108C3.17017 11.8171 3.19849 13.2614 3.25317 14.4406C3.31689 15.8172 3.42261 16.9986 3.57007 17.9849C3.729 19.0491 3.94458 19.9435 4.21631 20.6682C4.63745 21.7915 5.24268 22.7133 6.03198 23.4333C6.46362 23.8272 6.9502 24.1607 7.49219 24.4339C8.7998 25.0933 10.397 25.3948 12.2842 25.3382C15.2993 25.2478 17.5396 24.4261 19.0051 22.8734C19.6008 22.2422 20.0684 21.4902 20.408 20.6174C20.6377 20.0273 20.8176 19.2812 20.948 18.3791C21.0701 17.5349 21.1541 16.5097 21.2002 15.3036C21.24 14.2653 21.2549 12.9809 21.2449 11.4502C21.2388 10.51 21.2166 8.98132 21.1777 6.8642C21.1475 5.20361 21.1265 3.92743 21.1147 3.03571C21.0957 1.60974 21.0857 0.280762 21.0847 -0.951172Z" clip-rule="evenodd" fill="#F55757" fill-opacity="1.000000" fill-rule="evenodd"/>
	<path id="Subtract" d="M29.1211 4.11719L38.0273 4.11719L38.0273 28.1406L40.6211 28.1406L40.6211 1.54877L29.1211 1.54877L29.1211 4.11719ZM29.1211 0.548767L29.1211 -0.951172L53.0176 -0.951172L53.0176 0.548767L29.1211 0.548767ZM53.0176 1.54877L41.6211 1.54877L41.6211 28.1406L44.1113 28.1406L44.1113 4.11719L53.0176 4.11719L53.0176 1.54877Z" clip-rule="evenodd" fill="#F55757" fill-opacity="1.000000" fill-rule="evenodd"/>
	<path id="Subtract" d="M78.5581 7.81836L80.6348 7.81836C80.5469 2.63281 76.2793 -0.951172 69.8047 -0.951172C63.4277 -0.951172 58.7598 2.57422 58.7793 7.85742C58.7695 12.1445 61.7969 14.6055 66.709 15.7871L69.873 16.5781C73.0469 17.3496 74.8047 18.2578 74.8242 20.2207C74.8047 22.3496 72.793 23.7949 69.668 23.7949C66.4648 23.7949 64.1699 22.3203 63.9648 19.4102L60.7983 19.4102C61.2104 21.2989 61.9751 22.7252 63.0925 23.689C64.4441 24.8547 66.6926 25.4738 69.8386 25.5462C70.9719 25.5723 72.0579 25.454 73.0964 25.1913C74.1445 24.9261 75.0544 24.5361 75.8262 24.0213C76.6206 23.4914 77.2112 22.8651 77.5979 22.1426C77.7197 21.9154 77.8193 21.6812 77.8975 21.4399C78.0833 20.8651 78.1455 20.2503 78.084 19.5955C78.0525 19.2587 77.9778 18.9387 77.8601 18.6355C77.7354 18.3145 77.5625 18.0122 77.3413 17.7287C76.9478 17.2244 76.3887 16.7613 75.6636 16.3393C75.0444 15.9789 74.2651 15.6284 73.3257 15.2877C72.948 15.1508 72.5154 15.0046 72.0273 14.8493C71.7341 14.7559 71.2942 14.6201 70.7078 14.4417C70.0535 14.2427 69.5696 14.0925 69.2566 13.9913C68.7322 13.8217 68.28 13.6627 67.9001 13.5145C67.6018 13.3981 67.1567 13.233 66.5649 13.0193C66.0237 12.8239 65.6233 12.6758 65.3638 12.5751C64.928 12.4059 64.55 12.2444 64.23 12.0905C63.4128 11.6972 62.7771 11.2548 62.3232 10.7631C62.1118 10.5341 61.9314 10.2876 61.782 10.0236C61.5391 9.59387 61.3779 9.11774 61.2988 8.59515C61.1643 7.7049 61.2644 6.64557 61.5996 5.41718L61.6003 5.41394C61.8047 4.66693 62.1995 3.97205 62.7847 3.32922C63.3289 2.73138 64.0071 2.21167 64.8193 1.77008C65.6055 1.34259 66.4634 1.01709 67.3931 0.793518C68.0815 0.627991 68.7732 0.527161 69.4685 0.490967C69.7234 0.477722 69.979 0.473145 70.2351 0.477295C71.2373 0.49353 72.1846 0.643066 73.0767 0.925842C74.0105 1.22174 74.8411 1.65094 75.5688 2.21332C75.5903 2.22992 75.6118 2.2467 75.6333 2.26355C75.9382 2.50458 76.2207 2.76636 76.481 3.04883C76.9067 3.51129 77.2725 4.0293 77.5776 4.60278C78.0796 5.54565 78.4065 6.61749 78.5581 7.81836ZM77.5493 7.81836C77.4067 6.7901 77.1221 5.87488 76.6951 5.07275C76.4224 4.56073 76.0947 4.10016 75.7124 3.69098C75.4968 3.46039 75.2637 3.24609 75.0132 3.04816C74.366 2.53662 73.6196 2.14697 72.7747 1.87909C71.9753 1.62579 71.1235 1.49182 70.2188 1.47717C70.0049 1.47369 69.791 1.47693 69.5776 1.48682C68.9246 1.51715 68.2742 1.61017 67.627 1.76581C66.7827 1.96881 66.0061 2.26312 65.2971 2.64862C64.5837 3.0365 63.9927 3.48779 63.5242 4.00244C63.0461 4.52753 62.7261 5.08685 62.5642 5.6803C62.2664 6.77283 62.1741 7.69464 62.2876 8.44568C62.3513 8.86743 62.4844 9.24811 62.6863 9.58765C62.7915 9.76453 62.9153 9.93024 63.0581 10.0848C63.4258 10.483 63.9609 10.8512 64.6636 11.1893C64.96 11.332 65.314 11.4832 65.7256 11.6429C65.9778 11.7407 66.3706 11.886 66.9045 12.0787C67.5044 12.2953 67.9575 12.4634 68.2637 12.5829C68.625 12.724 69.0586 12.8763 69.5642 13.0398C69.8718 13.1392 70.3499 13.2876 70.9985 13.4849C71.5894 13.6646 72.0332 13.8017 72.3308 13.8964C72.8313 14.0558 73.2766 14.2062 73.6665 14.3476C74.6624 14.7087 75.4956 15.0845 76.1667 15.475C77.0029 15.9617 77.6572 16.5079 78.1296 17.1136C78.4109 17.4739 78.6311 17.8581 78.7903 18.2661C78.9424 18.6562 79.0391 19.0682 79.0798 19.502C79.1506 20.2564 79.085 20.9698 78.8826 21.6421C78.782 21.9764 78.6477 22.3005 78.4797 22.6145C78.0139 23.4843 77.3145 24.2305 76.3813 24.8531C75.5142 25.4316 74.501 25.8675 73.3416 26.1608C72.2151 26.4457 71.0396 26.5742 69.8154 26.546C66.4307 26.468 63.9719 25.7681 62.4395 24.4462C61.1106 23.3 60.2229 21.6213 59.7766 19.4102L58.0176 19.4102C58.1738 25.6992 62.6758 28.9512 69.7363 28.9512C76.8359 28.9512 81.0156 25.5625 81.0254 20.2305C81.0156 15.3867 77.3633 12.8184 72.3047 11.6758L69.6973 11.0508C67.168 10.4746 65.0488 9.53711 65.0879 7.44727C65.0879 5.57227 66.748 4.19531 69.7656 4.19531C72.7051 4.19531 74.5117 5.5332 74.7363 7.81836L77.5493 7.81836Z" clip-rule="evenodd" fill="#F55757" fill-opacity="1.000000" fill-rule="evenodd"/>
</svg>
