<?xml version="1.0" ?><svg viewBox="0 0 129.88 129.88" xmlns="http://www.w3.org/2000/svg" xmlns:xlink="http://www.w3.org/1999/xlink"><defs><style>.cls-1{fill:url(#linear-gradient);}.cls-2{fill:url(#linear-gradient-2);}.cls-3{fill:#fff;}.cls-4{fill:url(#linear-gradient-3);}.cls-10,.cls-5,.cls-6{stroke:#fff;}.cls-5{stroke-miterlimit:10;stroke-width:2px;fill:url(#linear-gradient-4);}.cls-6{fill:#ffcb05;}.cls-10,.cls-6{stroke-linecap:round;stroke-linejoin:round;stroke-width:4.6px;}.cls-7{fill:url(#linear-gradient-5);}.cls-8{fill:url(#linear-gradient-6);}.cls-9{fill:url(#linear-gradient-7);}.cls-10{fill:none;}.cls-11{fill:url(#linear-gradient-8);}</style><linearGradient gradientUnits="userSpaceOnUse" id="linear-gradient" x1="21.03" x2="108.83" y1="90.28" y2="39.59"><stop offset="0.02" stop-color="red"/><stop offset="1" stop-color="#9e005d"/></linearGradient><linearGradient id="linear-gradient-2" x1="36.37" x2="68.33" xlink:href="#linear-gradient" y1="66.48" y2="66.48"/><linearGradient id="linear-gradient-3" x1="38.03" x2="66.67" xlink:href="#linear-gradient" y1="71.04" y2="71.04"/><linearGradient id="linear-gradient-4" x1="45.35" x2="56.59" xlink:href="#linear-gradient" y1="62" y2="62"/><linearGradient id="linear-gradient-5" x1="40.81" x2="53.14" xlink:href="#linear-gradient" y1="79.36" y2="79.36"/><linearGradient id="linear-gradient-6" x1="56.84" x2="94.83" xlink:href="#linear-gradient" y1="62.32" y2="62.32"/><linearGradient id="linear-gradient-7" x1="58.5" x2="93.18" xlink:href="#linear-gradient" y1="71.1" y2="71.1"/><linearGradient id="linear-gradient-8" x1="70.75" x2="83.08" xlink:href="#linear-gradient" y1="79.36" y2="79.36"/></defs><title/><g data-name="Layer 1" id="Layer_1"><path class="cls-1" d="M86.32,14.24H43.53a13.64,13.64,0,0,0-11.81,6.82L10.33,58.11a13.62,13.62,0,0,0,0,13.64l21.39,37.06a13.64,13.64,0,0,0,11.81,6.82H86.32a13.64,13.64,0,0,0,11.81-6.82l21.39-37.06a13.62,13.62,0,0,0,0-13.64l-21.39-37A13.64,13.64,0,0,0,86.32,14.24Z"/><path class="cls-2" d="M38,80.16a1.65,1.65,0,0,1-1.66-1.65V67.75a9.41,9.41,0,0,1,3.09-7l5.8-5.26a10.55,10.55,0,0,1,7.09-2.73H66.67a1.66,1.66,0,0,1,1.66,1.66V78.51a1.66,1.66,0,0,1-1.66,1.65Z"/><path class="cls-3" d="M66.67,54.45V78.51H38V67.75A7.76,7.76,0,0,1,40.57,62l5.8-5.26a8.93,8.93,0,0,1,6-2.3H66.67m0-3.32H52.35a12.23,12.23,0,0,0-8.2,3.16l-5.8,5.26a11.08,11.08,0,0,0-3.64,8.2V78.51A3.32,3.32,0,0,0,38,81.82H66.67A3.31,3.31,0,0,0,70,78.51V54.45a3.32,3.32,0,0,0-3.31-3.32Z"/><path class="cls-4" d="M66.67,78.51H38V67.75a7.67,7.67,0,0,1,1.24-4.18h27.4Z"/><path class="cls-5" d="M56.59,64.77H46.1a.75.75,0,0,1-.47-1.33l3.59-2.87A6.08,6.08,0,0,1,53,59.23h3.12"/><line class="cls-6" x1="37.7" x2="33.36" y1="80.2" y2="80.2"/><path class="cls-7" d="M47,85.52a6.16,6.16,0,1,1,6.16-6.16A6.17,6.17,0,0,1,47,85.52Z"/><path class="cls-3" d="M47,74.85a4.51,4.51,0,1,1-4.51,4.51A4.51,4.51,0,0,1,47,74.85m0-3.31a7.82,7.82,0,1,0,7.82,7.82A7.83,7.83,0,0,0,47,71.54Z"/><path class="cls-8" d="M68.3,80.3c-7.61,0-9.6-.46-10.49-.86a1.66,1.66,0,0,1-1-1.51v-27a6.59,6.59,0,0,1,6.58-6.59H88.25a6.59,6.59,0,0,1,6.58,6.59V73.58a6.59,6.59,0,0,1-6.58,6.58H76s-3.69.14-7.68.14Z"/><path class="cls-3" d="M88.25,46a4.93,4.93,0,0,1,4.93,4.93V73.58a4.93,4.93,0,0,1-4.93,4.93H76s-3.67.13-7.68.13-8.54-.14-9.8-.71v-27A4.92,4.92,0,0,1,63.42,46H88.25m0-3.31H63.42a8.25,8.25,0,0,0-8.24,8.24v27a3.32,3.32,0,0,0,2,3c1.16.52,3.31,1,11.17,1,3.78,0,7.22-.12,7.74-.14H88.25a8.25,8.25,0,0,0,8.24-8.24V50.93a8.24,8.24,0,0,0-8.24-8.24Z"/><path class="cls-9" d="M93.18,63.57v10a4.93,4.93,0,0,1-4.93,4.93H76s-15,.55-17.48-.58V63.57Z"/><path class="cls-10" d="M88.25,59.13V53.57a2.72,2.72,0,0,0-2.72-2.72H75.68"/><path class="cls-11" d="M76.91,85.52a6.16,6.16,0,1,1,6.17-6.16A6.16,6.16,0,0,1,76.91,85.52Z"/><path class="cls-3" d="M76.91,74.85a4.51,4.51,0,1,1-4.51,4.51,4.51,4.51,0,0,1,4.51-4.51m0-3.31a7.82,7.82,0,1,0,7.82,7.82,7.83,7.83,0,0,0-7.82-7.82Z"/></g></svg>